<mxfile host="app.diagrams.net" modified="2023-09-19T21:46:04.069Z" agent="Mozilla/5.0 (Windows NT 10.0; Win64; x64) AppleWebKit/537.36 (KHTML, like Gecko) Chrome/116.0.0.0 Safari/537.36" etag="sMYvKvYipJyRtLarhhqt" version="21.7.4" type="device">
  <diagram id="7q6WzZqFf9v9yzIv_zda" name="Use case">
    <mxGraphModel dx="699" dy="1880" grid="1" gridSize="10" guides="1" tooltips="1" connect="1" arrows="1" fold="1" page="1" pageScale="1" pageWidth="850" pageHeight="1100" math="0" shadow="0">
      <root>
        <mxCell id="0" />
        <mxCell id="1" parent="0" />
        <mxCell id="SSoZlEEdxV4zL4xD8buy-2" value="Banker" style="shape=umlActor;verticalLabelPosition=bottom;verticalAlign=top;html=1;outlineConnect=0;fillColor=#FFFFFF;" parent="1" vertex="1">
          <mxGeometry x="10" y="420" width="30" height="60" as="geometry" />
        </mxCell>
        <mxCell id="SSoZlEEdxV4zL4xD8buy-3" value="" style="endArrow=none;html=1;entryX=0;entryY=0.5;entryDx=0;entryDy=0;" parent="1" edge="1" target="SSoZlEEdxV4zL4xD8buy-4">
          <mxGeometry width="50" height="50" relative="1" as="geometry">
            <mxPoint x="40" y="452" as="sourcePoint" />
            <mxPoint x="130" y="452" as="targetPoint" />
          </mxGeometry>
        </mxCell>
        <mxCell id="WDBh8lspaIzGpVAFnXx1-50" style="edgeStyle=orthogonalEdgeStyle;rounded=0;orthogonalLoop=1;jettySize=auto;html=1;entryX=0;entryY=0.5;entryDx=0;entryDy=0;dashed=1;startArrow=none;startFill=0;" edge="1" parent="1" source="SSoZlEEdxV4zL4xD8buy-4" target="SSoZlEEdxV4zL4xD8buy-5">
          <mxGeometry relative="1" as="geometry" />
        </mxCell>
        <mxCell id="WDBh8lspaIzGpVAFnXx1-52" value="&amp;lt;&amp;lt;Includes&amp;gt;&amp;gt;" style="edgeLabel;html=1;align=center;verticalAlign=middle;resizable=0;points=[];" vertex="1" connectable="0" parent="WDBh8lspaIzGpVAFnXx1-50">
          <mxGeometry x="-0.2961" y="-2" relative="1" as="geometry">
            <mxPoint as="offset" />
          </mxGeometry>
        </mxCell>
        <mxCell id="WDBh8lspaIzGpVAFnXx1-51" style="edgeStyle=orthogonalEdgeStyle;rounded=0;orthogonalLoop=1;jettySize=auto;html=1;entryX=0;entryY=0.5;entryDx=0;entryDy=0;dashed=1;startArrow=none;startFill=0;" edge="1" parent="1" source="SSoZlEEdxV4zL4xD8buy-4" target="WDBh8lspaIzGpVAFnXx1-3">
          <mxGeometry relative="1" as="geometry">
            <Array as="points">
              <mxPoint x="160" y="580" />
            </Array>
          </mxGeometry>
        </mxCell>
        <mxCell id="WDBh8lspaIzGpVAFnXx1-53" value="&amp;lt;&amp;lt;Includes&amp;gt;&amp;gt;" style="edgeLabel;html=1;align=center;verticalAlign=middle;resizable=0;points=[];" vertex="1" connectable="0" parent="WDBh8lspaIzGpVAFnXx1-51">
          <mxGeometry x="0.35" y="-4" relative="1" as="geometry">
            <mxPoint as="offset" />
          </mxGeometry>
        </mxCell>
        <mxCell id="WDBh8lspaIzGpVAFnXx1-54" style="edgeStyle=orthogonalEdgeStyle;rounded=0;orthogonalLoop=1;jettySize=auto;html=1;entryX=0;entryY=0.5;entryDx=0;entryDy=0;dashed=1;startArrow=none;startFill=0;" edge="1" parent="1" source="SSoZlEEdxV4zL4xD8buy-4" target="WDBh8lspaIzGpVAFnXx1-20">
          <mxGeometry relative="1" as="geometry">
            <Array as="points">
              <mxPoint x="160" y="220" />
            </Array>
          </mxGeometry>
        </mxCell>
        <mxCell id="WDBh8lspaIzGpVAFnXx1-55" value="&amp;lt;&amp;lt;Includes&amp;gt;&amp;gt;" style="edgeLabel;html=1;align=center;verticalAlign=middle;resizable=0;points=[];" vertex="1" connectable="0" parent="WDBh8lspaIzGpVAFnXx1-54">
          <mxGeometry x="0.14" y="-1" relative="1" as="geometry">
            <mxPoint as="offset" />
          </mxGeometry>
        </mxCell>
        <mxCell id="WDBh8lspaIzGpVAFnXx1-56" style="edgeStyle=orthogonalEdgeStyle;rounded=0;orthogonalLoop=1;jettySize=auto;html=1;exitX=1;exitY=0;exitDx=0;exitDy=0;entryX=0;entryY=0.5;entryDx=0;entryDy=0;dashed=1;startArrow=none;startFill=0;" edge="1" parent="1" source="SSoZlEEdxV4zL4xD8buy-4" target="WDBh8lspaIzGpVAFnXx1-9">
          <mxGeometry relative="1" as="geometry">
            <Array as="points">
              <mxPoint x="202" y="330" />
            </Array>
          </mxGeometry>
        </mxCell>
        <mxCell id="WDBh8lspaIzGpVAFnXx1-57" value="&amp;lt;&amp;lt;Includes&amp;gt;&amp;gt;" style="edgeLabel;html=1;align=center;verticalAlign=middle;resizable=0;points=[];" vertex="1" connectable="0" parent="WDBh8lspaIzGpVAFnXx1-56">
          <mxGeometry x="0.2424" y="-4" relative="1" as="geometry">
            <mxPoint as="offset" />
          </mxGeometry>
        </mxCell>
        <mxCell id="SSoZlEEdxV4zL4xD8buy-4" value="Login to Access NextCloud Server Client Files" style="ellipse;whiteSpace=wrap;html=1;fillColor=#FFFFFF;" parent="1" vertex="1">
          <mxGeometry x="100" y="410" width="120" height="80" as="geometry" />
        </mxCell>
        <mxCell id="WDBh8lspaIzGpVAFnXx1-60" style="edgeStyle=orthogonalEdgeStyle;rounded=0;orthogonalLoop=1;jettySize=auto;html=1;entryX=0.5;entryY=1;entryDx=0;entryDy=0;dashed=1;startArrow=none;startFill=0;" edge="1" parent="1" source="SSoZlEEdxV4zL4xD8buy-5" target="WDBh8lspaIzGpVAFnXx1-25">
          <mxGeometry relative="1" as="geometry">
            <Array as="points">
              <mxPoint x="460" y="510" />
              <mxPoint x="800" y="510" />
            </Array>
          </mxGeometry>
        </mxCell>
        <mxCell id="WDBh8lspaIzGpVAFnXx1-63" value="&amp;lt;&amp;lt;mitigates&amp;gt;&amp;gt;" style="edgeLabel;html=1;align=center;verticalAlign=middle;resizable=0;points=[];" vertex="1" connectable="0" parent="WDBh8lspaIzGpVAFnXx1-60">
          <mxGeometry x="-0.7163" y="2" relative="1" as="geometry">
            <mxPoint x="6" as="offset" />
          </mxGeometry>
        </mxCell>
        <mxCell id="SSoZlEEdxV4zL4xD8buy-5" value="Strong Password Policy" style="ellipse;whiteSpace=wrap;html=1;fillColor=#FFFFFF;" parent="1" vertex="1">
          <mxGeometry x="400" y="410" width="120" height="80" as="geometry" />
        </mxCell>
        <mxCell id="WDBh8lspaIzGpVAFnXx1-13" style="edgeStyle=orthogonalEdgeStyle;rounded=0;orthogonalLoop=1;jettySize=auto;html=1;entryX=1;entryY=0.5;entryDx=0;entryDy=0;exitX=0;exitY=0.3333333333333333;exitDx=0;exitDy=0;exitPerimeter=0;" edge="1" parent="1" source="okeo2Aa4OqrN3XAgRoa3-4" target="okeo2Aa4OqrN3XAgRoa3-7">
          <mxGeometry relative="1" as="geometry">
            <mxPoint x="870.0588235294119" y="350" as="sourcePoint" />
            <Array as="points">
              <mxPoint x="1030" y="390" />
              <mxPoint x="1030" y="390" />
            </Array>
          </mxGeometry>
        </mxCell>
        <mxCell id="okeo2Aa4OqrN3XAgRoa3-4" value="Hacker" style="shape=umlActor;verticalLabelPosition=bottom;verticalAlign=top;html=1;outlineConnect=0;fillColor=#000000;" parent="1" vertex="1">
          <mxGeometry x="1090" y="370" width="30" height="60" as="geometry" />
        </mxCell>
        <mxCell id="okeo2Aa4OqrN3XAgRoa3-7" value="Gain Unauthorized Access to NextCloud Server Client Files" style="ellipse;whiteSpace=wrap;html=1;fillColor=#000000;fontColor=#FFFFFF;" parent="1" vertex="1">
          <mxGeometry x="950" y="350" width="120" height="80" as="geometry" />
        </mxCell>
        <mxCell id="WDBh8lspaIzGpVAFnXx1-58" style="edgeStyle=orthogonalEdgeStyle;rounded=0;orthogonalLoop=1;jettySize=auto;html=1;entryX=0.5;entryY=1;entryDx=0;entryDy=0;dashed=1;startArrow=none;startFill=0;" edge="1" parent="1" source="WDBh8lspaIzGpVAFnXx1-3" target="WDBh8lspaIzGpVAFnXx1-26">
          <mxGeometry relative="1" as="geometry">
            <Array as="points">
              <mxPoint x="460" y="640" />
              <mxPoint x="800" y="640" />
            </Array>
          </mxGeometry>
        </mxCell>
        <mxCell id="WDBh8lspaIzGpVAFnXx1-59" value="&amp;lt;&amp;lt;prevents&amp;gt;&amp;gt;" style="edgeLabel;html=1;align=center;verticalAlign=middle;resizable=0;points=[];" vertex="1" connectable="0" parent="WDBh8lspaIzGpVAFnXx1-58">
          <mxGeometry x="-0.1527" y="-1" relative="1" as="geometry">
            <mxPoint x="-101" as="offset" />
          </mxGeometry>
        </mxCell>
        <mxCell id="WDBh8lspaIzGpVAFnXx1-3" value="Account Lockout Policy" style="ellipse;whiteSpace=wrap;html=1;" vertex="1" parent="1">
          <mxGeometry x="400" y="540" width="120" height="80" as="geometry" />
        </mxCell>
        <mxCell id="WDBh8lspaIzGpVAFnXx1-61" style="edgeStyle=orthogonalEdgeStyle;rounded=0;orthogonalLoop=1;jettySize=auto;html=1;entryX=0.5;entryY=1;entryDx=0;entryDy=0;dashed=1;startArrow=none;startFill=0;" edge="1" parent="1" source="WDBh8lspaIzGpVAFnXx1-9" target="WDBh8lspaIzGpVAFnXx1-24">
          <mxGeometry relative="1" as="geometry">
            <Array as="points">
              <mxPoint x="460" y="390" />
              <mxPoint x="800" y="390" />
            </Array>
          </mxGeometry>
        </mxCell>
        <mxCell id="WDBh8lspaIzGpVAFnXx1-62" value="&amp;lt;&amp;lt;prevents&amp;gt;&amp;gt;" style="edgeLabel;html=1;align=center;verticalAlign=middle;resizable=0;points=[];" vertex="1" connectable="0" parent="WDBh8lspaIzGpVAFnXx1-61">
          <mxGeometry x="-0.6854" y="-1" relative="1" as="geometry">
            <mxPoint as="offset" />
          </mxGeometry>
        </mxCell>
        <mxCell id="WDBh8lspaIzGpVAFnXx1-9" value="MFA Validation" style="ellipse;whiteSpace=wrap;html=1;fillColor=#FFFFFF;" vertex="1" parent="1">
          <mxGeometry x="400" y="290" width="120" height="80" as="geometry" />
        </mxCell>
        <mxCell id="WDBh8lspaIzGpVAFnXx1-20" value="Secured Access to Files" style="ellipse;whiteSpace=wrap;html=1;fillColor=#FFFFFF;" vertex="1" parent="1">
          <mxGeometry x="400" y="180" width="120" height="80" as="geometry" />
        </mxCell>
        <mxCell id="WDBh8lspaIzGpVAFnXx1-40" style="edgeStyle=orthogonalEdgeStyle;rounded=0;orthogonalLoop=1;jettySize=auto;html=1;exitX=0;exitY=0.5;exitDx=0;exitDy=0;entryX=1;entryY=0.5;entryDx=0;entryDy=0;dashed=1;" edge="1" parent="1" source="WDBh8lspaIzGpVAFnXx1-24" target="WDBh8lspaIzGpVAFnXx1-20">
          <mxGeometry relative="1" as="geometry">
            <mxPoint x="540" y="150" as="targetPoint" />
            <Array as="points">
              <mxPoint x="630" y="330" />
              <mxPoint x="630" y="220" />
            </Array>
          </mxGeometry>
        </mxCell>
        <mxCell id="WDBh8lspaIzGpVAFnXx1-44" value="&amp;lt;&amp;lt;threatens&amp;gt;&amp;gt;" style="edgeLabel;html=1;align=center;verticalAlign=middle;resizable=0;points=[];" vertex="1" connectable="0" parent="WDBh8lspaIzGpVAFnXx1-40">
          <mxGeometry x="-0.4523" y="-2" relative="1" as="geometry">
            <mxPoint x="31" as="offset" />
          </mxGeometry>
        </mxCell>
        <mxCell id="WDBh8lspaIzGpVAFnXx1-24" value="Keylogging" style="ellipse;whiteSpace=wrap;html=1;fillColor=#000000;fontColor=#ffffff;" vertex="1" parent="1">
          <mxGeometry x="740" y="290" width="120" height="80" as="geometry" />
        </mxCell>
        <mxCell id="WDBh8lspaIzGpVAFnXx1-41" style="edgeStyle=orthogonalEdgeStyle;rounded=0;orthogonalLoop=1;jettySize=auto;html=1;entryX=1;entryY=0.5;entryDx=0;entryDy=0;dashed=1;" edge="1" parent="1" source="WDBh8lspaIzGpVAFnXx1-25" target="WDBh8lspaIzGpVAFnXx1-20">
          <mxGeometry relative="1" as="geometry">
            <Array as="points">
              <mxPoint x="600" y="450" />
              <mxPoint x="600" y="230" />
              <mxPoint x="520" y="230" />
            </Array>
          </mxGeometry>
        </mxCell>
        <mxCell id="WDBh8lspaIzGpVAFnXx1-45" value="&amp;lt;&amp;lt;threatens&amp;gt;&amp;gt;" style="edgeLabel;html=1;align=center;verticalAlign=middle;resizable=0;points=[];" vertex="1" connectable="0" parent="WDBh8lspaIzGpVAFnXx1-41">
          <mxGeometry x="-0.6833" relative="1" as="geometry">
            <mxPoint x="19" as="offset" />
          </mxGeometry>
        </mxCell>
        <mxCell id="WDBh8lspaIzGpVAFnXx1-25" value="Dictionary Attack" style="ellipse;whiteSpace=wrap;html=1;fillColor=#000000;fontColor=#ffffff;" vertex="1" parent="1">
          <mxGeometry x="740" y="410" width="120" height="80" as="geometry" />
        </mxCell>
        <mxCell id="WDBh8lspaIzGpVAFnXx1-42" style="edgeStyle=orthogonalEdgeStyle;rounded=0;orthogonalLoop=1;jettySize=auto;html=1;entryX=1;entryY=0.5;entryDx=0;entryDy=0;dashed=1;" edge="1" parent="1" source="WDBh8lspaIzGpVAFnXx1-26" target="WDBh8lspaIzGpVAFnXx1-20">
          <mxGeometry relative="1" as="geometry">
            <Array as="points">
              <mxPoint x="580" y="580" />
              <mxPoint x="580" y="250" />
              <mxPoint x="520" y="250" />
            </Array>
          </mxGeometry>
        </mxCell>
        <mxCell id="WDBh8lspaIzGpVAFnXx1-46" value="&amp;lt;&amp;lt;threatens&amp;gt;&amp;gt;" style="edgeLabel;html=1;align=center;verticalAlign=middle;resizable=0;points=[];" vertex="1" connectable="0" parent="WDBh8lspaIzGpVAFnXx1-42">
          <mxGeometry x="-0.8047" y="-1" relative="1" as="geometry">
            <mxPoint x="9" y="1" as="offset" />
          </mxGeometry>
        </mxCell>
        <mxCell id="WDBh8lspaIzGpVAFnXx1-26" value="Brute Force Attack" style="ellipse;whiteSpace=wrap;html=1;fillColor=#000000;fontColor=#ffffff;" vertex="1" parent="1">
          <mxGeometry x="740" y="540" width="120" height="80" as="geometry" />
        </mxCell>
        <mxCell id="WDBh8lspaIzGpVAFnXx1-29" value="" style="endArrow=classic;dashed=1;html=1;dashPattern=1 3;strokeWidth=2;rounded=0;exitX=0.003;exitY=0.625;exitDx=0;exitDy=0;entryX=1;entryY=0.5;entryDx=0;entryDy=0;startArrow=none;startFill=0;endFill=1;exitPerimeter=0;" edge="1" parent="1" source="okeo2Aa4OqrN3XAgRoa3-7" target="WDBh8lspaIzGpVAFnXx1-25">
          <mxGeometry width="50" height="50" relative="1" as="geometry">
            <mxPoint x="750" y="690" as="sourcePoint" />
            <mxPoint x="800" y="640" as="targetPoint" />
          </mxGeometry>
        </mxCell>
        <mxCell id="WDBh8lspaIzGpVAFnXx1-36" value="&amp;lt;&amp;lt;Includes&amp;gt;&amp;gt;" style="edgeLabel;html=1;align=center;verticalAlign=middle;resizable=0;points=[];" vertex="1" connectable="0" parent="WDBh8lspaIzGpVAFnXx1-29">
          <mxGeometry x="0.0764" y="-4" relative="1" as="geometry">
            <mxPoint as="offset" />
          </mxGeometry>
        </mxCell>
        <mxCell id="WDBh8lspaIzGpVAFnXx1-31" value="" style="endArrow=none;dashed=1;html=1;dashPattern=1 3;strokeWidth=2;rounded=0;entryX=0.5;entryY=0;entryDx=0;entryDy=0;exitX=1;exitY=0.5;exitDx=0;exitDy=0;startArrow=classic;startFill=1;" edge="1" parent="1" source="WDBh8lspaIzGpVAFnXx1-24" target="okeo2Aa4OqrN3XAgRoa3-7">
          <mxGeometry width="50" height="50" relative="1" as="geometry">
            <mxPoint x="750" y="690" as="sourcePoint" />
            <mxPoint x="800" y="640" as="targetPoint" />
            <Array as="points">
              <mxPoint x="1010" y="330" />
            </Array>
          </mxGeometry>
        </mxCell>
        <mxCell id="WDBh8lspaIzGpVAFnXx1-35" value="&amp;lt;&amp;lt;Includes&amp;gt;&amp;gt;" style="edgeLabel;html=1;align=center;verticalAlign=middle;resizable=0;points=[];" vertex="1" connectable="0" parent="WDBh8lspaIzGpVAFnXx1-31">
          <mxGeometry x="-0.2252" relative="1" as="geometry">
            <mxPoint as="offset" />
          </mxGeometry>
        </mxCell>
        <mxCell id="WDBh8lspaIzGpVAFnXx1-32" value="" style="endArrow=none;dashed=1;html=1;dashPattern=1 3;strokeWidth=2;rounded=0;entryX=0.5;entryY=1;entryDx=0;entryDy=0;exitX=1;exitY=0.5;exitDx=0;exitDy=0;startArrow=classic;startFill=1;" edge="1" parent="1" source="WDBh8lspaIzGpVAFnXx1-26" target="okeo2Aa4OqrN3XAgRoa3-7">
          <mxGeometry width="50" height="50" relative="1" as="geometry">
            <mxPoint x="910" y="500" as="sourcePoint" />
            <mxPoint x="960" y="450" as="targetPoint" />
          </mxGeometry>
        </mxCell>
        <mxCell id="WDBh8lspaIzGpVAFnXx1-37" value="&amp;lt;&amp;lt;Includes&amp;gt;&amp;gt;" style="edgeLabel;html=1;align=center;verticalAlign=middle;resizable=0;points=[];" vertex="1" connectable="0" parent="WDBh8lspaIzGpVAFnXx1-32">
          <mxGeometry x="-0.2158" y="5" relative="1" as="geometry">
            <mxPoint as="offset" />
          </mxGeometry>
        </mxCell>
        <mxCell id="WDBh8lspaIzGpVAFnXx1-64" value="Banker" style="shape=umlActor;verticalLabelPosition=bottom;verticalAlign=top;html=1;outlineConnect=0;fillColor=#FFFFFF;" vertex="1" parent="1">
          <mxGeometry x="69" y="30" width="30" height="60" as="geometry" />
        </mxCell>
        <mxCell id="WDBh8lspaIzGpVAFnXx1-66" style="edgeStyle=orthogonalEdgeStyle;rounded=0;orthogonalLoop=1;jettySize=auto;html=1;endArrow=block;endFill=0;strokeWidth=3;" edge="1" parent="1" source="WDBh8lspaIzGpVAFnXx1-65">
          <mxGeometry relative="1" as="geometry">
            <mxPoint x="85" y="120" as="targetPoint" />
          </mxGeometry>
        </mxCell>
        <mxCell id="WDBh8lspaIzGpVAFnXx1-65" value="Customer" style="shape=umlActor;verticalLabelPosition=bottom;verticalAlign=top;html=1;outlineConnect=0;fillColor=#FFFFFF;" vertex="1" parent="1">
          <mxGeometry x="70" y="170" width="30" height="60" as="geometry" />
        </mxCell>
      </root>
    </mxGraphModel>
  </diagram>
</mxfile>
